<svg xmlns="http://www.w3.org/2000/svg" xmlns:xlink="http://www.w3.org/1999/xlink" viewBox="0 0 64 64" role="img" aria-hidden="true" focusable="false"><title>Sweet with strawberry</title><path d="M14 36h36l-3 17a7 7 0 0 1-7 6H24a7 7 0 0 1-7-6z" fill="#FFF6E8" stroke="#8E0A1D" stroke-width="2.6"/><path d="M17 43h30" stroke="#F4B400" stroke-width="3"/><path d="M16 34c0-7 7-12 16-12s16 5 16 12z" fill="#FFFDF7" stroke="#C98A12" stroke-width="2.4"/><path d="M32 24c-6 0-10 2-12 5 4-1 8-1 12 1 4-2 8-2 12-1-2-3-6-5-12-5z" fill="#FFF6E8" opacity=".85"/><path d="M32 22c-4 0-7-3-7-6 0-2 1-3 3-3-1-3 2-6 5-5 3-1 6 2 5 5 2 0 3 1 3 3 0 3-3 6-7 6z" fill="#C8102E" stroke="#8E0A1D" stroke-width="2"/><path d="M32 8c1-3 3-4 6-4-1 3-3 5-6 5z" fill="#4E9B4A"/><circle cx="30" cy="14" r="1.3" fill="#FFFDF7"/><circle cx="35" cy="16" r="1.3" fill="#FFFDF7"/></svg>